<?xml version="1.0" standalone="no"?>
<!DOCTYPE svg PUBLIC "-//W3C//DTD SVG 20010904//EN"
 "http://www.w3.org/TR/2001/REC-SVG-20010904/DTD/svg10.dtd">
<svg version="1.0" xmlns="http://www.w3.org/2000/svg"
 width="1200.000000pt" height="1200.000000pt" viewBox="0 0 1200.000000 1200.000000"
 preserveAspectRatio="xMidYMid meet">

<g transform="translate(0.000000,1200.000000) scale(0.100000,-0.100000)"
fill="grey" stroke="none">
<path d="M5130 8264 c-276 -33 -442 -79 -648 -183 -373 -187 -722 -549 -936
-969 -193 -381 -298 -799 -337 -1347 -14 -201 -6 -717 15 -915 100 -941 428
-1597 985 -1971 300 -202 643 -299 1056 -299 868 0 1520 397 1925 1172 l56
107 62 -251 c75 -299 163 -571 229 -704 109 -221 269 -324 504 -324 96 0 161
16 257 61 326 156 555 677 589 1337 l6 122 -106 0 -107 0 0 -47 c0 -73 -28
-240 -51 -313 -79 -242 -246 -370 -484 -370 -279 0 -497 309 -650 923 l-37
148 31 107 c78 270 145 563 532 2302 148 668 273 1225 276 1238 l5 22 -498 0
-499 0 -174 -813 c-96 -446 -177 -818 -179 -826 -3 -7 -35 74 -72 180 -89 258
-147 402 -239 594 -293 607 -611 899 -1083 995 -97 20 -345 34 -428 24z m415
-469 c253 -66 455 -235 650 -544 36 -58 115 -205 175 -326 146 -295 254 -572
369 -947 l51 -166 -95 -468 c-186 -916 -299 -1299 -505 -1703 -231 -455 -501
-684 -829 -707 -550 -39 -899 451 -1020 1426 -40 328 -46 441 -46 960 0 501 6
637 41 935 113 968 411 1477 909 1555 77 12 225 4 300 -15z"/>
</g>
</svg>
